<?xml version="1.0" encoding="utf-8"?>
<!-- Generator: Adobe Illustrator 26.0.1, SVG Export Plug-In . SVG Version: 6.00 Build 0)  -->
<svg version="1.1" id="Layer_1" xmlns="http://www.w3.org/2000/svg" xmlns:xlink="http://www.w3.org/1999/xlink" x="0px" y="0px"
	 viewBox="0 0 1366 768" style="enable-background:new 0 0 1366 768;" xml:space="preserve">
<style type="text/css">
	.st0{fill:#FBFE69;}
</style>
<g>
	<path class="st0" d="M225.19,122.67h17.83V276.8h-17.83v-72.88H117.52v72.88H99.69V122.67h17.83v64.95h107.67V122.67z"/>
	<path class="st0" d="M262.18,216.25c0-36.11,27.52-63.19,61.87-63.19c34.35,0,61.87,27.08,61.87,63.19s-27.52,63.19-61.87,63.19
		C289.71,279.44,262.18,252.36,262.18,216.25z M368.53,216.25c0-26.42-19.6-46.9-44.48-46.9s-44.48,20.48-44.48,46.9
		c0,26.42,19.6,46.9,44.48,46.9S368.53,242.67,368.53,216.25z"/>
	<path class="st0" d="M435.91,276.8l-49.54-121.1h18.28l39.19,99.08h0.66l40.51-99.08h15.85l40.51,99.08h0.66l39.19-99.08h18.27
		l-49.54,121.1h-16.07l-40.51-99.96h-0.88l-40.51,99.96H435.91z"/>
	<path class="st0" d="M617.56,219.99c1.76,24.66,20.48,43.16,44.26,43.16c14.97,0,27.08-7.27,34.57-17.83h20.48
		c-9.91,20.48-31.05,34.13-55.05,34.13c-34.35,0-61.87-27.08-61.87-63.19s27.52-63.19,61.87-63.19c34.35,0,61.87,27.08,61.87,63.19
		c0,1.32,0,2.42-0.22,3.74H617.56z M618.89,204.14h85.87c-4.84-20.26-22.02-34.79-42.94-34.79
		C640.9,169.35,623.73,183.88,618.89,204.14z"/>
	<path class="st0" d="M782.48,276.8l-61.87-121.1h19.6l49.98,99.96h0.66l49.76-99.96h19.82l-62.09,121.1H782.48z"/>
	<path class="st0" d="M874.74,219.99c1.76,24.66,20.48,43.16,44.26,43.16c14.97,0,27.08-7.27,34.57-17.83h20.48
		c-9.91,20.48-31.05,34.13-55.05,34.13c-34.35,0-61.87-27.08-61.87-63.19s27.52-63.19,61.87-63.19s61.87,27.08,61.87,63.19
		c0,1.32,0,2.42-0.22,3.74H874.74z M876.06,204.14h85.87c-4.84-20.26-22.02-34.79-42.94-34.79
		C898.08,169.35,880.91,183.88,876.06,204.14z"/>
	<path class="st0" d="M999.8,276.8V155.7h16.73v22.68h0.66c3.96-13.21,14.75-22.68,32.81-22.68h13.43v16.29h-14.31
		c-18.72,0-31.93,14.97-31.93,36.11v68.7H999.8z"/>
</g>
<g>
	<path class="st0" d="M787.99,311.15l-65.4,92.26v61.87h-17.83v-62.31l-65.39-91.82h23.12l50.86,72.88h0.66l50.86-72.88H787.99z"/>
	<path class="st0" d="M768.61,404.73c0-36.11,27.52-63.19,61.87-63.19s61.87,27.08,61.87,63.19c0,36.11-27.52,63.19-61.87,63.19
		S768.61,440.84,768.61,404.73z M874.96,404.73c0-26.42-19.6-46.9-44.48-46.9s-44.48,20.48-44.48,46.9c0,26.42,19.6,46.9,44.48,46.9
		S874.96,431.15,874.96,404.73z"/>
	<path class="st0" d="M911.29,412.43v-68.26h17.39v68.26c0,23.12,15.19,39.19,37.43,39.19c21.58,0,37.65-16.29,37.65-39.19v-68.26
		h17.17v121.1h-16.51v-18.94h-0.66c-7.71,13.65-23.12,21.58-38.75,21.58C930.01,467.92,911.29,444.36,911.29,412.43z"/>
</g>
<g>
	<path class="st0" d="M654.56,653.71V499.58h20.92l70.24,135.63h0.66l70.46-135.63h20.7v154.13h-17.61V530.63h-0.88l-64.07,123.08
		h-17.83l-64.07-123.08h-0.66v123.08H654.56z M856.69,593.16c0-36.11,27.52-63.19,61.87-63.19s61.87,27.08,61.87,63.19
		s-27.52,63.19-61.87,63.19S856.69,629.27,856.69,593.16z M963.04,593.16c0-26.42-19.6-46.9-44.48-46.9s-44.48,20.48-44.48,46.9
		s19.6,46.9,44.48,46.9S963.04,619.58,963.04,593.16z M999.37,653.71v-121.1h17.39v96.88h0.66l89.84-96.88h22.46l-112.29,121.1
		H999.37z M1133.03,596.91c1.76,24.66,20.48,43.16,44.26,43.16c14.97,0,27.08-7.27,34.57-17.83h20.48
		c-9.91,20.48-31.05,34.13-55.05,34.13c-34.35,0-61.87-27.08-61.87-63.19s27.52-63.19,61.87-63.19c34.35,0,61.87,27.08,61.87,63.19
		c0,1.32,0,2.42-0.22,3.74H1133.03z M1134.35,581.05h85.87c-4.84-20.26-22.02-34.79-42.94-34.79
		C1156.37,546.26,1139.19,560.8,1134.35,581.05z"/>
</g>
</svg>
